<svg width="130" height="141" viewBox="0 0 130 141" fill="none" xmlns="http://www.w3.org/2000/svg">
<path d="M42.2903 109.503L19.627 109.503L8.29537 89.8763L19.627 70.2493L42.2903 70.2493L53.622 89.8763L42.2903 109.503Z" fill="#7B290F"/>
<path d="M41.2484 107.639L20.831 107.639L10.6223 89.9574L20.831 72.2754L41.2484 72.2754L51.4571 89.9574L41.2484 107.639Z" fill="#F1BF3D"/>
<path d="M76.3317 129.143L53.6684 129.143L42.3367 109.516L53.6684 89.8886L76.3317 89.8886L87.6634 109.516L76.3317 129.143Z" fill="#7B290F"/>
<path d="M75.2898 127.279L54.8724 127.279L44.6637 109.597L54.8724 91.9147L75.2898 91.9147L85.4985 109.597L75.2898 127.279Z" fill="#F1BF3D"/>
<path d="M42.2903 70.2249L19.627 70.2249L8.29537 50.5979L19.627 30.9709L42.2903 30.9709L53.622 50.5979L42.2903 70.2249Z" fill="#7B290F"/>
<path d="M41.2484 68.361L20.831 68.361L10.6223 50.679L20.831 32.997L41.2484 32.997L51.4571 50.679L41.2484 68.361Z" fill="#F1BF3D"/>
<path d="M76.3317 89.8641L53.6684 89.8641L42.3367 70.2371L53.6684 50.6101L76.3317 50.6101L87.6634 70.2371L76.3317 89.8641Z" fill="#7B290F"/>
<path d="M75.2898 88.0002L54.8724 88.0002L44.6637 70.3183L54.8724 52.6363L75.2898 52.6363L85.4985 70.3183L75.2898 88.0002Z" fill="#F1BF3D"/>
<path d="M76.3317 50.5857L53.6684 50.5857L42.3367 30.9587L53.6684 11.3317L76.3317 11.3317L87.6634 30.9587L76.3317 50.5857Z" fill="#7B290F"/>
<path d="M75.2898 48.7218L54.8724 48.7218L44.6637 31.0398L54.8724 13.3578L75.2898 13.3578L85.4985 31.0398L75.2898 48.7218Z" fill="#F1BF3D"/>
<path d="M110.373 109.503L87.7097 109.503L76.378 89.8764L87.7097 70.2493L110.373 70.2493L121.705 89.8764L110.373 109.503Z" fill="#7B290F"/>
<path d="M109.331 107.639L88.9137 107.639L78.705 89.9575L88.9137 72.2755L109.331 72.2755L119.54 89.9575L109.331 107.639Z" fill="#F1BF3D"/>
<path d="M110.373 70.2249L87.7097 70.2249L76.378 50.5979L87.7097 30.9709L110.373 30.9709L121.705 50.5979L110.373 70.2249Z" fill="#7B290F"/>
<path d="M109.331 68.361L88.9137 68.361L78.705 50.679L88.9137 32.997L109.331 32.997L119.54 50.679L109.331 68.361Z" fill="#F1BF3D"/>
</svg>
